<svg width="194" height="42" viewBox="0 0 194 42" fill="none" xmlns="http://www.w3.org/2000/svg">
<path d="M43.904 37.788C44.832 37.788 45.296 37.444 45.296 36.756C45.296 36.476 45.224 36.256 45.08 36.096C44.944 35.936 44.688 35.796 44.312 35.676L43.328 35.352C42.152 34.968 41.564 34.196 41.564 33.036C41.564 32.364 41.772 31.812 42.188 31.38C42.612 30.94 43.272 30.72 44.168 30.72C44.544 30.72 44.916 30.764 45.284 30.852C45.652 30.932 46.044 31.064 46.46 31.248L46.016 32.484C45.632 32.332 45.304 32.224 45.032 32.16C44.768 32.088 44.496 32.052 44.216 32.052C43.848 32.052 43.556 32.12 43.34 32.256C43.132 32.384 43.028 32.62 43.028 32.964C43.028 33.22 43.1 33.432 43.244 33.6C43.396 33.76 43.644 33.896 43.988 34.008L44.972 34.332C45.564 34.532 46.008 34.824 46.304 35.208C46.608 35.584 46.76 36.084 46.76 36.708C46.76 37.428 46.532 38.012 46.076 38.46C45.62 38.9 44.904 39.12 43.928 39.12C43.544 39.12 43.144 39.076 42.728 38.988C42.32 38.892 41.872 38.732 41.384 38.508L41.828 37.272C42.276 37.464 42.656 37.6 42.968 37.68C43.288 37.752 43.6 37.788 43.904 37.788ZM57.9509 34.056V35.772C57.9509 36.812 57.6909 37.632 57.1709 38.232C56.6509 38.824 55.8909 39.12 54.8909 39.12C53.8829 39.12 53.1189 38.824 52.5989 38.232C52.0869 37.632 51.8309 36.812 51.8309 35.772V34.056C51.8309 33.016 52.0869 32.2 52.5989 31.608C53.1189 31.016 53.8829 30.72 54.8909 30.72C55.8909 30.72 56.6509 31.016 57.1709 31.608C57.6909 32.2 57.9509 33.016 57.9509 34.056ZM56.4749 34.056C56.4749 33.4 56.3469 32.908 56.0909 32.58C55.8349 32.244 55.4349 32.076 54.8909 32.076C54.3469 32.076 53.9469 32.244 53.6909 32.58C53.4349 32.908 53.3069 33.4 53.3069 34.056V35.772C53.3069 36.428 53.4349 36.924 53.6909 37.26C53.9469 37.596 54.3469 37.764 54.8909 37.764C55.4349 37.764 55.8349 37.596 56.0909 37.26C56.3469 36.924 56.4749 36.428 56.4749 35.772V34.056ZM65.2667 30.84L67.5467 36.42L69.8147 30.84H71.3867V39H70.0067V35.88L70.1867 33.024L68.1587 38.04H66.8747L64.8947 33.012L65.0747 35.88V39H63.6947V30.84H65.2667ZM82.2119 37.62V39H77.4839V30.84H82.0919V32.22H78.9239V34.176H81.7319V35.556H78.9239V37.62H82.2119ZM93.0279 32.22V30.84H99.0279V32.22H96.7479V39H95.3079V32.22H93.0279ZM107.715 39L107.211 37.404H104.415L103.911 39H102.483L105.207 30.84H106.479L109.215 39H107.715ZM105.195 34.908L104.823 36.084H106.791L106.419 34.908L105.819 32.844L105.195 34.908ZM119.584 38.472C119.384 38.592 119.052 38.732 118.588 38.892C118.132 39.044 117.596 39.12 116.98 39.12C116.284 39.12 115.7 38.976 115.228 38.688C114.764 38.4 114.412 38.004 114.172 37.5C113.932 36.996 113.812 36.42 113.812 35.772V34.056C113.812 33.392 113.932 32.812 114.172 32.316C114.412 31.812 114.768 31.42 115.24 31.14C115.72 30.86 116.32 30.72 117.04 30.72C117.392 30.72 117.756 30.76 118.132 30.84C118.508 30.912 118.92 31.048 119.368 31.248L118.924 32.508C118.532 32.356 118.192 32.248 117.904 32.184C117.624 32.112 117.344 32.076 117.064 32.076C116.44 32.076 115.988 32.256 115.708 32.616C115.428 32.968 115.288 33.448 115.288 34.056V35.772C115.288 36.348 115.428 36.82 115.708 37.188C115.996 37.556 116.444 37.74 117.052 37.74C117.236 37.74 117.436 37.724 117.652 37.692C117.868 37.66 118.076 37.616 118.276 37.56V35.772H116.956V34.512H119.584V38.472ZM129.958 37.62V39H125.254V30.84H126.694V37.62H129.958ZM136.616 39H135.176V30.84H136.616V39ZM142.708 39V30.84H144.028C144.66 31.664 145.26 32.536 145.828 33.456C146.396 34.368 146.912 35.308 147.376 36.276L147.268 33.84V30.84H148.648V39H147.328C146.816 37.992 146.284 36.98 145.732 35.964C145.188 34.94 144.608 33.976 143.992 33.072L144.088 35.88V39H142.708ZM159.467 37.62V39H154.739V30.84H159.347V32.22H156.179V34.176H158.987V35.556H156.179V37.62H159.467Z" fill="#F2CB07"/>
<path d="M49.719 19.3V22H39.945V19.57L45.723 11.011H40.215V8.311H49.449V10.741L43.671 19.3H49.719ZM61.3733 19.3V22H51.5993V19.57L57.3773 11.011H51.8693V8.311H61.1033V10.741L55.3253 19.3H61.3733ZM67.6276 5.719H64.3606V2.506H67.6276V5.719ZM67.5466 22H64.4416V8.311H67.5466V22ZM82.2194 21.217C81.2834 21.595 80.4014 21.865 79.5734 22.027C78.7454 22.189 77.9624 22.27 77.2244 22.27C75.1904 22.27 73.6514 21.694 72.6074 20.542C71.5634 19.39 71.0414 17.86 71.0414 15.952V14.332C71.0414 13.054 71.2754 11.947 71.7434 11.011C72.2114 10.075 72.8774 9.346 73.7414 8.824C74.6054 8.302 75.6224 8.041 76.7924 8.041C77.7464 8.041 78.6374 8.239 79.4654 8.635C80.3114 9.013 80.9954 9.616 81.5174 10.444C82.0574 11.254 82.3274 12.298 82.3274 13.576C82.3274 13.954 82.3004 14.359 82.2464 14.791C82.1924 15.205 82.1024 15.646 81.9764 16.114H74.0384C74.0744 17.23 74.3534 18.067 74.8754 18.625C75.3974 19.183 76.2344 19.462 77.3864 19.462C77.9984 19.462 78.6284 19.39 79.2764 19.246C79.9424 19.102 80.6264 18.886 81.3284 18.598L82.2194 21.217ZM76.7924 10.66C75.9644 10.66 75.3164 10.93 74.8484 11.47C74.3984 11.992 74.1374 12.748 74.0654 13.738H79.2494C79.2674 13.648 79.2764 13.567 79.2764 13.495C79.2764 13.405 79.2764 13.324 79.2764 13.252C79.2764 12.388 79.0334 11.74 78.5474 11.308C78.0614 10.876 77.4764 10.66 76.7924 10.66ZM101.462 22L96.8718 13.981C96.5658 14.323 96.2508 14.665 95.9268 15.007C95.6208 15.349 95.2968 15.7 94.9548 16.06V22H91.7148V3.64H94.9548V12.361C96.3228 10.795 97.4928 9.31 98.4648 7.906C99.4368 6.484 100.274 5.062 100.976 3.64H104.513C103.739 5.188 102.911 6.655 102.029 8.041C101.165 9.409 100.247 10.678 99.2748 11.848L105.377 22H101.462ZM115.416 22V20.191C114.588 20.911 113.814 21.442 113.094 21.784C112.374 22.108 111.645 22.27 110.907 22.27C109.683 22.27 108.738 21.856 108.072 21.028C107.406 20.182 107.073 19.003 107.073 17.491V8.311H110.178V17.113C110.178 18.625 110.736 19.381 111.852 19.381C112.302 19.381 112.788 19.273 113.31 19.057C113.85 18.841 114.498 18.427 115.254 17.815V8.311H118.359V22H115.416ZM126.468 19.57C127.134 19.57 127.683 19.462 128.115 19.246C128.547 19.012 128.763 18.67 128.763 18.22C128.763 17.824 128.619 17.518 128.331 17.302C128.061 17.068 127.566 16.861 126.846 16.681L125.307 16.276C124.119 15.97 123.237 15.457 122.661 14.737C122.103 14.017 121.824 13.162 121.824 12.172C121.824 11.002 122.229 10.021 123.039 9.229C123.849 8.437 125.1 8.041 126.792 8.041C127.476 8.041 128.196 8.122 128.952 8.284C129.708 8.446 130.5 8.707 131.328 9.067L130.437 11.713C129.681 11.353 128.997 11.101 128.385 10.957C127.773 10.813 127.233 10.741 126.765 10.741C125.487 10.741 124.848 11.173 124.848 12.037C124.848 12.379 124.956 12.649 125.172 12.847C125.406 13.045 125.829 13.225 126.441 13.387L127.98 13.792C129.294 14.134 130.248 14.656 130.842 15.358C131.454 16.06 131.76 16.942 131.76 18.004C131.76 19.264 131.328 20.29 130.464 21.082C129.618 21.874 128.277 22.27 126.441 22.27C124.875 22.27 123.228 21.91 121.5 21.19L122.337 18.625C123.183 18.967 123.948 19.21 124.632 19.354C125.316 19.498 125.928 19.57 126.468 19.57ZM143.182 21.541C142.714 21.757 142.174 21.928 141.562 22.054C140.95 22.198 140.329 22.27 139.699 22.27C138.655 22.27 137.818 22.054 137.188 21.622C136.558 21.19 136.099 20.587 135.811 19.813C135.541 19.039 135.406 18.157 135.406 17.167V11.011H133.192V8.311H135.406V4.747H138.511V8.311H142.777V11.011H138.511V17.167C138.511 17.995 138.664 18.571 138.97 18.895C139.294 19.201 139.753 19.354 140.347 19.354C140.635 19.354 140.941 19.327 141.265 19.273C141.607 19.201 141.985 19.084 142.399 18.922L143.182 21.541ZM156.884 14.332V15.952C156.884 17.86 156.362 19.39 155.318 20.542C154.274 21.694 152.798 22.27 150.89 22.27C148.982 22.27 147.506 21.694 146.462 20.542C145.418 19.39 144.896 17.86 144.896 15.952V14.332C144.896 12.424 145.409 10.903 146.435 9.769C147.479 8.617 148.964 8.041 150.89 8.041C152.816 8.041 154.292 8.617 155.318 9.769C156.362 10.903 156.884 12.424 156.884 14.332ZM153.698 14.332C153.698 13.234 153.455 12.379 152.969 11.767C152.483 11.137 151.79 10.822 150.89 10.822C149.99 10.822 149.297 11.137 148.811 11.767C148.325 12.379 148.082 13.234 148.082 14.332V15.952C148.082 17.05 148.325 17.914 148.811 18.544C149.297 19.174 149.99 19.489 150.89 19.489C151.79 19.489 152.483 19.174 152.969 18.544C153.455 17.914 153.698 17.05 153.698 15.952V14.332ZM163.47 12.523V22H160.365V8.311H163.308V10.12C164.154 9.382 164.937 8.851 165.657 8.527C166.377 8.203 167.115 8.041 167.871 8.041C169.545 8.041 170.688 8.779 171.3 10.255C172.2 9.463 173.037 8.896 173.811 8.554C174.585 8.212 175.368 8.041 176.16 8.041C177.42 8.041 178.383 8.464 179.049 9.31C179.715 10.138 180.048 11.308 180.048 12.82V22H176.943V13.198C176.943 11.686 176.367 10.93 175.215 10.93C174.765 10.93 174.27 11.038 173.73 11.254C173.19 11.47 172.533 11.893 171.759 12.523V22H168.654V13.198C168.654 11.686 168.078 10.93 166.926 10.93C166.476 10.93 165.981 11.038 165.441 11.254C164.901 11.47 164.244 11.893 163.47 12.523ZM192.735 19.3V22H182.961V19.57L188.739 11.011H183.231V8.311H192.465V10.741L186.687 19.3H192.735Z" fill="white"/>
<path d="M33.925 16.692V25.129C33.925 30.2423 32.6467 34.274 30.09 37.224C27.5333 40.1347 23.7967 41.59 18.88 41.59C13.924 41.59 10.1677 40.1347 7.611 37.224C5.09367 34.274 3.835 30.2423 3.835 25.129V16.692C3.835 11.5787 5.09367 7.56666 7.611 4.656C10.1677 1.74533 13.924 0.289997 18.88 0.289997C23.7967 0.289997 27.5333 1.74533 30.09 4.656C32.6467 7.56666 33.925 11.5787 33.925 16.692ZM26.668 16.692C26.668 13.4667 26.0387 11.0477 24.78 9.435C23.5213 7.783 21.5547 6.957 18.88 6.957C16.2053 6.957 14.2387 7.783 12.98 9.435C11.7213 11.0477 11.092 13.4667 11.092 16.692V25.129C11.092 28.3543 11.7213 30.793 12.98 32.445C14.2387 34.097 16.2053 34.923 18.88 34.923C21.5547 34.923 23.5213 34.097 24.78 32.445C26.0387 30.793 26.668 28.3543 26.668 25.129V16.692Z" fill="white"/>
</svg>
